<?xml version="1.0" encoding="UTF-8" standalone="no"?>
<!DOCTYPE svg PUBLIC "-//W3C//DTD SVG 20010904//EN"
              "http://www.w3.org/TR/2001/REC-SVG-20010904/DTD/svg10.dtd">

<svg xmlns="http://www.w3.org/2000/svg"
     width="5.03333in" height="2.98889in"
     viewBox="0 0 453 269">
  <symbol id="arrow" viewBox="0 0 453 269">
  <path fill="currentColor"
        d="M 408.00,120.00
           C 408.00,120.00 20.00,120.00 20.00,120.00
             20.00,120.00 20.00,145.00 20.00,145.00
             20.00,145.00 408.00,145.00 408.00,145.00
             408.00,145.00 379.00,174.00 379.00,174.00
             379.00,174.00 362.00,191.00 362.00,191.00
             358.28,194.72 349.57,202.63 347.65,207.00
             344.13,215.04 349.09,224.13 358.00,224.89
             368.11,225.76 376.40,214.60 383.00,208.00
             383.00,208.00 434.00,157.00 434.00,157.00
             439.55,151.45 451.16,141.87 451.89,134.00
             452.86,123.58 440.84,114.84 434.00,108.00
             434.00,108.00 387.00,61.00 387.00,61.00
             382.34,56.34 370.26,43.14 365.00,41.01
             354.58,36.79 343.98,44.64 347.12,56.00
             348.80,62.05 357.46,69.46 362.00,74.00
             362.00,74.00 379.00,91.00 379.00,91.00
             379.00,91.00 408.00,120.00 408.00,120.00 Z" />
  </symbol>
</svg>
